<?xml version="1.0" encoding="iso-8859-1"?>
<!-- Generator: Adobe Illustrator 19.0.0, SVG Export Plug-In . SVG Version: 6.00 Build 0)  -->
<svg version="1.1" id="Capa_1" xmlns="http://www.w3.org/2000/svg" xmlns:xlink="http://www.w3.org/1999/xlink" x="0px" y="0px"
	 viewBox="0 0 512 512" style="enable-background:new 0 0 512 512;" xml:space="preserve">
<path style="fill:#C8D6D5;" d="M382.857,511.996H129.141c-3.414,0-6.181-2.767-6.181-6.181v-38.84
	c0-73.475,59.563-133.039,133.039-133.039l0,0c73.475,0,133.039,59.564,133.039,133.039v38.84
	C389.038,509.228,386.271,511.996,382.857,511.996z"/>
<path style="fill:#864A2D;" d="M143.977,82.93v185.36c0,19.584-7.932,37.323-20.768,50.16
	c-12.836,12.836-30.566,20.768-50.149,20.768c-22.211,0-41.774-13.712-49.644-33.924c-0.288-0.731-0.422-1.484-0.422-2.225
	c0-2.946,2.163-5.635,5.316-6.006c14.268-1.669,25.013-13.763,25.013-28.124v-95.354c0-39.188,24.869-72.576,59.689-85.227
	C122.673,84.846,133.098,82.93,143.977,82.93z"/>
<g>
	<path style="fill:#6E3117;" d="M113.01,88.359c9.663-3.513,20.089-5.429,30.967-5.429v160.883
		c-1.896,0.288-3.832,0.433-5.779,0.433c-21.17,0-38.395-17.225-38.395-38.405c0-10.25,4.049-19.573,10.631-26.476
		c-0.484-1.679-0.937-3.369-1.36-5.069c-2.926-11.826-4.409-24.065-4.409-36.355C104.665,120.583,107.601,103.894,113.01,88.359z"/>
	<path style="fill:#6E3117;" d="M92.854,176.096c-4.268,0-7.726-3.459-7.726-7.726c0-31.755,26.284-48.729,27.402-49.436
		c3.609-2.278,8.379-1.204,10.659,2.404c2.276,3.6,1.208,8.36-2.381,10.645c-0.897,0.578-20.227,13.334-20.227,36.387
		C100.58,172.636,97.122,176.096,92.854,176.096z"/>
</g>
<path style="fill:#864A2D;" d="M489.005,303.069c0,0.742-0.134,1.494-0.422,2.225c-7.871,20.212-27.434,33.924-49.644,33.924
	c-19.584,0-37.313-7.932-50.149-20.768s-20.768-30.576-20.768-50.16V82.93c10.879,0,21.304,1.916,30.967,5.429
	c34.82,12.651,59.689,46.039,59.689,85.227v95.354c0,14.361,10.745,26.455,25.013,28.124
	C486.842,297.434,489.005,300.123,489.005,303.069z"/>
<g>
	<path style="fill:#6E3117;" d="M412.195,205.841c0,21.18-17.225,38.405-38.395,38.405c-1.947,0-3.884-0.144-5.779-0.433V82.93
		c10.879,0,21.304,1.916,30.967,5.429c5.408,15.535,8.344,32.224,8.344,49.583c0,12.29-1.483,24.529-4.409,36.355
		c-0.423,1.7-0.876,3.389-1.36,5.069C408.146,186.267,412.195,195.59,412.195,205.841z"/>
	<path style="fill:#6E3117;" d="M419.144,176.096c-4.268,0-7.726-3.459-7.726-7.726c0-23.335-20.003-36.245-20.205-36.373
		c-3.607-2.28-4.683-7.052-2.403-10.659c2.279-3.608,7.05-4.683,10.659-2.404c1.119,0.707,27.402,17.682,27.402,49.436
		C426.87,172.636,423.411,176.096,419.144,176.096z"/>
</g>
<path style="fill:#864A2D;" d="M393.935,137.938c0,11.422-1.393,22.537-4.016,33.15c-2.52,10.213-6.177,19.976-10.828,29.155
	H132.906c-4.651-9.179-8.308-18.941-10.828-29.155c-2.622-10.613-4.016-21.728-4.016-33.15
	C118.063,61.753,179.824,0.002,255.999,0.002S393.935,61.753,393.935,137.938z"/>
<path style="fill:#AA6344;" d="M387.739,96.92c-23.746-45.988-73.823-77.676-131.74-77.676S148.005,50.932,124.259,96.92
	C141.731,40.764,194.106,0,255.999,0S370.267,40.764,387.739,96.92z"/>
<path style="fill:#AFC3C3;" d="M282.609,476.984L308.991,512H203.007l26.383-35.016c-1.947-3.946-3.049-8.375-3.049-13.063
	c0-3.771,0.721-7.366,1.999-10.683l-89.626-49.067c2.112-3.956,4.43-7.788,6.923-11.487c2.38-3.544,4.945-6.964,7.654-10.261
	c3.183-3.884,6.614-7.592,10.23-11.085c7.726-7.469,16.38-14.021,25.744-19.46c19.615-11.414,42.413-17.946,66.735-17.946
	s47.12,6.531,66.735,17.946c9.374,5.429,18.018,11.981,25.744,19.46c0.536,0.525,1.071,1.04,1.597,1.566
	c3.029,3.029,5.903,6.202,8.633,9.509c2.72,3.297,5.275,6.717,7.665,10.271c2.493,3.698,4.801,7.531,6.923,11.476l-89.636,49.078
	c1.277,3.317,1.999,6.923,1.999,10.683C285.658,468.609,284.556,473.038,282.609,476.984z"/>
<polygon style="fill:#FF6E6E;" points="292.23,512 219.768,512 247.964,474.584 264.034,474.584 "/>
<path style="fill:#FC4747;" d="M263.725,477.386V512h-15.453v-34.614c0-0.989,0.185-1.937,0.536-2.802
	c1.113-2.884,3.915-4.924,7.191-4.924c3.276,0,6.078,2.04,7.191,4.924C263.54,475.449,263.725,476.397,263.725,477.386z"/>
<path style="fill:#FF6E6E;" d="M366.373,392.684l-110.374,60.431l-110.363-60.431c2.38-3.544,4.945-6.964,7.654-10.261
	c3.183-3.884,6.614-7.592,10.23-11.085c7.726-7.469,16.38-14.021,25.744-19.46c19.615-11.414,42.413-17.946,66.735-17.946
	s47.12,6.531,66.735,17.946c9.374,5.429,18.018,11.981,25.744,19.46c0.536,0.525,1.071,1.04,1.597,1.566
	c3.029,3.029,5.903,6.202,8.633,9.509C361.428,385.71,363.983,389.13,366.373,392.684z"/>
<path style="fill:#FEDFC5;" d="M322.734,351.879c-8.509,8.437-17.863,20.83-26.795,34.068c-2.555,3.771-5.068,7.603-7.52,11.445
	c-17.874,27.939-32.42,55.723-32.42,55.723s-14.721-28.114-32.719-56.207c-2.452-3.822-4.966-7.654-7.51-11.404
	c-8.849-13.073-18.1-25.281-26.507-33.625c19.615-11.414,42.413-17.946,66.735-17.946S303.119,340.465,322.734,351.879z"/>
<g>
	<path style="fill:#EDB48A;" d="M322.739,351.875c-28.581,28.356-66.74,101.245-66.74,101.245s-38.159-72.889-66.74-101.245
		c4.149-2.407,8.431-4.61,12.846-6.566c21.543,21.267,47.194,71.193,53.894,77.657c7.734-7.458,34.328-58.265,53.986-77.616
		C314.37,347.296,318.621,349.478,322.739,351.875z"/>
	<path style="fill:#EDB48A;" d="M295.939,385.947c-2.555,3.771-5.068,7.603-7.52,11.445c-17.874,27.939-32.42,55.723-32.42,55.723
		s-14.721-28.114-32.719-56.207c-2.452-3.822-4.966-7.654-7.51-11.404l18.79-18.574c5.718-5.635,13.279-8.746,21.294-8.746
		c8.159,0,15.813,3.204,21.551,9.014L295.939,385.947z"/>
</g>
<path style="fill:#385F82;" d="M288.419,397.392c-17.874,27.939-32.42,55.723-32.42,55.723s-14.721-28.114-32.719-56.207
	l9.797-9.684l10.899-10.765c6.645-6.562,17.338-6.5,23.9,0.144l11.126,11.26L288.419,397.392z"/>
<path style="fill:#1F4C68;" d="M288.419,397.392c-17.874,27.939-32.42,55.723-32.42,55.723s-14.721-28.114-32.719-56.207
	l9.797-9.684c10.642,16.947,19.398,32.337,22.922,35.737c3.925-3.781,12.723-18.749,23.004-35.098L288.419,397.392z"/>
<rect x="225.6" y="287.92" style="fill:#FEDFC5;" width="60.809" height="66.727"/>
<path style="fill:#EDB48A;" d="M286.403,287.921v47.184c-9.742,3.442-19.955,5.224-30.404,5.224
	c-10.449,0-20.662-1.782-30.404-5.224v-47.184H286.403z"/>
<path style="fill:#FEDFC5;" d="M398.801,205.846c0,13.809-11.197,25.006-25.006,25.006c-3.637,0-7.079-0.779-10.193-2.172
	c-8.728-3.903-14.803-12.662-14.803-22.834c0-10.777,6.823-19.966,16.38-23.479c2.684-0.983,5.583-1.526,8.615-1.526
	C387.604,180.84,398.801,192.037,398.801,205.846z"/>
<path style="fill:#EDB48A;" d="M365.18,182.366v23.295c0,7.796-0.533,15.489-1.578,23.018c-8.728-3.903-14.803-12.662-14.803-22.834
	C348.8,195.069,355.622,185.88,365.18,182.366z"/>
<path style="fill:#FEDFC5;" d="M163.199,205.846c0,10.172-6.075,18.931-14.803,22.834c-3.114,1.393-6.556,2.172-10.193,2.172
	c-13.809,0-25.006-11.197-25.006-25.006c0-13.809,11.197-25.006,25.006-25.006c3.032,0,5.931,0.543,8.615,1.526
	C156.376,185.88,163.199,195.069,163.199,205.846z"/>
<path style="fill:#EDB48A;" d="M163.199,205.846c0,10.172-6.075,18.931-14.803,22.834c-1.045-7.529-1.578-15.223-1.578-23.018
	v-23.295C156.376,185.88,163.199,195.069,163.199,205.846z"/>
<path style="fill:#FEDFC5;" d="M351.863,100.121v105.541c0,67.017-42.923,121.351-95.864,121.351s-95.864-54.335-95.864-121.351
	V100.121H351.863z"/>
<path style="fill:#864A2D;" d="M146.72,82.932v81.297l0,0c42.348,0,81.007-27.069,110.447-53.045
	c29.44,25.976,68.099,53.045,110.447,53.045l0,0V82.932H146.72z"/>
<path style="fill:#FFAE85;" d="M255.999,287.633c-13.904,0-25.933-11.807-28.6-28.075c-0.69-4.211,2.164-8.184,6.375-8.875
	c4.212-0.69,8.184,2.164,8.874,6.375c1.437,8.763,7.051,15.122,13.35,15.122c6.299,0,11.914-6.36,13.351-15.123
	c0.691-4.211,4.658-7.07,8.875-6.374c4.211,0.691,7.064,4.664,6.374,8.875C281.932,275.826,269.903,287.633,255.999,287.633z"/>
<g>
	<path style="fill:#6E3117;" d="M212.391,224.179c-4.268,0-7.726-3.459-7.726-7.726v-13.288c0-4.267,3.459-7.726,7.726-7.726
		c4.268,0,7.726,3.459,7.726,7.726v13.288C220.117,220.719,216.658,224.179,212.391,224.179z"/>
	<path style="fill:#6E3117;" d="M299.608,224.179c-4.268,0-7.726-3.459-7.726-7.726v-13.288c0-4.267,3.459-7.726,7.726-7.726
		s7.726,3.459,7.726,7.726v13.288C307.334,220.719,303.875,224.179,299.608,224.179z"/>
</g>
<g>
	<path style="fill:#AA6344;" d="M169.36,97.111c-1.626,0-3.265-0.511-4.66-1.568c-3.401-2.577-4.069-7.423-1.492-10.824l12.7-16.763
		c2.576-3.401,7.424-4.069,10.824-1.492c3.401,2.577,4.069,7.423,1.492,10.824l-12.7,16.763
		C174.005,96.056,171.697,97.111,169.36,97.111z"/>
	<path style="fill:#AA6344;" d="M195.615,97.111c-1.626,0-3.265-0.511-4.66-1.568c-3.401-2.577-4.069-7.423-1.492-10.824
		l12.7-16.763c2.576-3.401,7.424-4.069,10.824-1.492c3.401,2.577,4.069,7.423,1.492,10.824l-12.7,16.763
		C200.26,96.056,197.951,97.111,195.615,97.111z"/>
	<path style="fill:#AA6344;" d="M347.692,97.111c-2.337,0-4.645-1.055-6.165-3.061l-12.699-16.763
		c-2.576-3.401-1.908-8.247,1.493-10.824c3.402-2.578,8.247-1.907,10.825,1.493l12.699,16.763c2.576,3.401,1.908,8.247-1.493,10.824
		C350.957,96.6,349.317,97.111,347.692,97.111z"/>
	<path style="fill:#AA6344;" d="M321.438,97.111c-2.337,0-4.645-1.055-6.165-3.061l-12.699-16.763
		c-2.576-3.401-1.908-8.247,1.493-10.824c3.402-2.578,8.248-1.907,10.825,1.493l12.699,16.763c2.576,3.401,1.908,8.247-1.493,10.824
		C324.702,96.6,323.062,97.111,321.438,97.111z"/>
</g>
<circle style="fill:#FC4747;" cx="255.999" cy="463.92" r="16.262"/>
<g>
	<circle style="fill:#FFAE85;" cx="311.059" cy="243.75" r="9.315"/>
	<circle style="fill:#FFAE85;" cx="200.939" cy="243.75" r="9.315"/>
</g>
<g>
</g>
<g>
</g>
<g>
</g>
<g>
</g>
<g>
</g>
<g>
</g>
<g>
</g>
<g>
</g>
<g>
</g>
<g>
</g>
<g>
</g>
<g>
</g>
<g>
</g>
<g>
</g>
<g>
</g>
</svg>
