<?xml version="1.0" encoding="iso-8859-1"?>
<!-- Generator: Adobe Illustrator 19.0.0, SVG Export Plug-In . SVG Version: 6.00 Build 0)  -->
<svg version="1.1" id="Capa_1" xmlns="http://www.w3.org/2000/svg" xmlns:xlink="http://www.w3.org/1999/xlink" x="0px" y="0px"
	 viewBox="0 0 512 512" style="enable-background:new 0 0 512 512;" xml:space="preserve">
<path style="fill:#A5F3D6;" d="M324.493,209.128c-27.318,0-51.856,12.133-68.508,31.293l-9.128,2.503v10
	c-8.321,13.707-13.116,29.783-13.116,46.957c0,18.549,5.558,36.386,16.075,51.584l12.335-8.535
	c-8.772-12.677-13.409-27.564-13.409-43.049c0-11.545,2.596-22.496,7.235-32.297l7.936-3.174c0,0,0-10,1.187-11.497
	c13.888-17.524,35.35-28.784,59.394-28.784h20.001v-15.001H324.493z"/>
<g>
	<path style="fill:#E59F8F;" d="M255.97,267.575c4.639,9.802,7.246,20.747,7.246,32.292c0,15.476-4.64,30.361-13.417,43.047
		c-2.357,3.406-1.506,8.078,1.9,10.435c1.302,0.901,2.789,1.333,4.261,1.333c2.379,0,4.718-1.129,6.174-3.233
		c10.521-15.206,16.084-33.043,16.084-51.583c0-17.174-4.796-33.248-13.117-46.956C261.529,257.417,258.454,262.328,255.97,267.575z
		"/>
	<path style="fill:#E59F8F;" d="M187.48,209.128h-20.001v15.001h20.001c24.044,0,45.491,11.273,59.378,28.797
		c2.689-4.429,5.746-8.611,9.129-12.503C239.335,221.262,214.798,209.128,187.48,209.128z"/>
</g>
<path style="fill:#FF973E;" d="M335.021,277.558l-14.575,168.021l-25.326,8.442c-3.93,1.31-6.053,5.557-4.744,9.487
	c1.048,3.143,3.974,5.13,7.114,5.13c0.786,0,1.586-0.125,2.373-0.387l30.001-10c2.837-0.946,4.842-3.487,5.101-6.467l15.001-172.93
	L335.021,277.558z"/>
<path style="fill:#FF772B;" d="M443.87,454.021l-25.326-8.442l-14.575-168.018l-14.945,1.296l15.001,172.927
	c0.259,2.98,2.263,5.521,5.101,6.467l30.001,10c0.787,0.262,1.586,0.387,2.373,0.387c3.14,0,6.066-1.988,7.114-5.13
	C449.923,459.579,447.8,455.331,443.87,454.021z"/>
<path style="fill:#CC8073;" d="M216.861,454.021l-25.327-8.442L179.96,312.146l-14.944,1.296l12,138.342
	c0.258,2.98,2.263,5.521,5.1,6.467l30.001,10c0.787,0.262,1.586,0.387,2.373,0.387c3.14,0,6.066-1.988,7.114-5.13
	C222.914,459.579,220.791,455.331,216.861,454.021z"/>
<path style="fill:#E59F8F;" d="M105.013,312.141L93.438,445.579l-25.326,8.442c-3.93,1.31-6.053,5.558-4.744,9.487
	c1.048,3.143,3.974,5.13,7.114,5.13c0.786,0,1.586-0.125,2.373-0.387l30.001-10c2.838-0.946,4.842-3.487,5.101-6.467l12-138.347
	L105.013,312.141z"/>
<path style="fill:#FF772B;" d="M369.495,249.13v75.003c24.854,0,45.002-20.148,45.002-45.002L369.495,249.13z"/>
<path style="fill:#FF973E;" d="M384.495,279.131l-30.001-30.001l-30.001,30.001c0,24.854,20.148,45.002,45.002,45.002
	C377.78,324.133,384.495,303.984,384.495,279.131z"/>
<path style="fill:#6CDFB4;" d="M414.496,209.128c45.493,0,82.503-37.01,82.503-82.503c0-4.142,3.358-7.5,7.5-7.5s7.5,3.358,7.5,7.5
	c0,53.764-43.74,97.504-97.504,97.504h-20.001v-15.001H414.496z"/>
<path style="fill:#E59F8F;" d="M97.504,209.128c-45.493,0-82.503-37.01-82.503-82.503c0-4.142-3.358-7.5-7.5-7.5s-7.5,3.358-7.5,7.5
	c0,53.764,43.74,97.504,97.504,97.504h20.001v-15.001H97.504z"/>
<path style="fill:#6CDFB4;" d="M394.496,189.128h-30.001l20.001,90.003h30.001v-70.003
	C414.496,198.082,405.542,189.128,394.496,189.128z"/>
<path style="fill:#A5F3D6;" d="M364.495,189.128h-20.001c-11.046,0-20.001,8.954-20.001,20.001v70.003h60.002v-70.003
	C384.495,198.082,375.541,189.128,364.495,189.128z"/>
<path style="fill:#63352F;" d="M369.495,69.123v90.003c24.854,0,45.002-20.148,45.002-45.002S394.349,69.123,369.495,69.123z"/>
<path style="fill:#864941;" d="M384.495,114.125c0-24.854-6.716-45.002-15.001-45.002c-24.854,0-45.002,20.148-45.002,45.002
	s20.148,45.002,45.002,45.002C377.78,159.126,384.495,138.978,384.495,114.125z"/>
<path style="fill:#CC8073;" d="M142.486,79.123v80.003c24.854,0,45.002-20.148,45.002-45.002c0-5.261-0.912-10.307-2.571-15.001
	L142.486,79.123z"/>
<path style="fill:#E59F8F;" d="M100.056,99.124c-1.659,4.693-2.571,9.739-2.571,15.001c0,24.854,20.148,45.002,45.002,45.002
	c8.284,0,15.001-20.148,15.001-45.002c0-5.261-0.304-10.307-0.857-15.001l-14.144-20.001L100.056,99.124z"/>
<path style="fill:#63352F;" d="M142.486,69.123l14.144,30.001h28.287C178.739,81.648,162.079,69.123,142.486,69.123z"/>
<path style="fill:#864941;" d="M142.486,69.123c-19.593,0-36.252,12.524-42.431,30.001h56.574
	C154.571,81.648,149.018,69.123,142.486,69.123z"/>
<path style="fill:#E44670;" d="M187.176,205.712c-1.624-9.415-9.809-16.585-19.689-16.585h-11.194l22.834,142.32h29.708
	L187.176,205.712z"/>
<path style="fill:#FF6288;" d="M167.166,205.712c-0.897-9.415-5.417-16.585-10.872-16.585h-38.807
	c-9.879,0-18.065,7.169-19.689,16.585l-21.66,125.735h102.989L167.166,205.712z"/>
<circle style="fill:#63352F;" cx="195.317" cy="68.362" r="25.001"/>
<circle style="fill:#864941;" cx="89.653" cy="68.362" r="25.001"/>
<g>
	<circle style="fill:#FFFFFF;" cx="142.485" cy="219.128" r="7.5"/>
	<circle style="fill:#FFFFFF;" cx="142.485" cy="249.129" r="7.5"/>
</g>
<g>
</g>
<g>
</g>
<g>
</g>
<g>
</g>
<g>
</g>
<g>
</g>
<g>
</g>
<g>
</g>
<g>
</g>
<g>
</g>
<g>
</g>
<g>
</g>
<g>
</g>
<g>
</g>
<g>
</g>
</svg>
