<svg id="Layer_1" enable-background="new 0 0 256 256" height="512" viewBox="0 0 256 256" width="512" xmlns="http://www.w3.org/2000/svg"><g><path d="m25.568 16.54s2.411 8.954 9.352 9.37c0 0-9.266 3.201-9.422 10.045 0 0-1.824-9.6-9.142-9.944-.001-.001 8.523-1.292 9.212-9.471z" fill="#d6df58"/><path d="m25.496 37.455c-.713 0-1.337-.507-1.472-1.22-.016-.082-1.704-8.442-7.739-8.726-.77-.037-1.387-.651-1.427-1.421-.04-.771.511-1.445 1.273-1.561.296-.047 7.364-1.243 7.942-8.114.061-.726.635-1.303 1.36-1.368.726-.069 1.392.399 1.582 1.102.021.079 2.228 7.92 7.994 8.265.714.043 1.299.584 1.396 1.293.098.709-.32 1.388-.996 1.622-.081.028-8.282 2.952-8.413 8.662-.018.767-.611 1.397-1.376 1.461-.041.003-.082.005-.124.005zm-4.519-11.528c2.107 1.333 3.523 3.394 4.447 5.28 1.376-2.232 3.515-3.872 5.365-4.973-2.287-1.27-3.884-3.35-4.942-5.224-1.172 2.287-3.014 3.876-4.87 4.917z" fill="#3a312a"/><path d="m51.092 132.003h153.816v91.907h-153.816z" fill="#d6df58"/><path d="m204.908 225.409h-153.816c-.829 0-1.5-.671-1.5-1.5v-91.907c0-.829.671-1.5 1.5-1.5h153.816c.829 0 1.5.671 1.5 1.5v91.907c0 .829-.671 1.5-1.5 1.5zm-152.316-3h150.816v-88.907h-150.816z" fill="#3a312a"/><path d="m175.588 150h29.32v-17.998h-153.816v17.998h111.986z" fill="#d6df58"/><path d="m204.908 151.5h-29.32c-.829 0-1.5-.671-1.5-1.5s.671-1.5 1.5-1.5h27.82v-14.998h-150.816v14.998h110.486c.829 0 1.5.671 1.5 1.5s-.671 1.5-1.5 1.5h-111.986c-.829 0-1.5-.671-1.5-1.5v-17.998c0-.829.671-1.5 1.5-1.5h153.816c.829 0 1.5.671 1.5 1.5v17.998c0 .829-.671 1.5-1.5 1.5z" fill="#3a312a"/><path d="m161.95 132.001v-13.877c0-8.458-6.859-15.313-15.321-15.313h-10.122v-6.575c-2.8 1.94-5.697 3.084-8.508 3.084-2.697 0-5.542-1.156-8.33-3.119h-.172v6.609h-10.127c-8.462 0-15.321 6.855-15.321 15.313v13.877h67.901z" fill="#fae6ca"/><path d="m161.951 133.501h-67.902c-.829 0-1.5-.671-1.5-1.5v-13.877c0-9.271 7.546-16.812 16.821-16.812h8.628v-5.109c0-.829.671-1.5 1.5-1.5h.171c.309 0 .611.096.863.273 2.682 1.888 5.194 2.845 7.467 2.845 2.38 0 4.956-.948 7.653-2.817.46-.318 1.056-.354 1.55-.096.495.259.804.771.804 1.329v5.075h8.622c9.275 0 16.821 7.542 16.821 16.812v13.877c.002.829-.67 1.5-1.498 1.5zm-66.402-3h64.901v-12.377c0-7.616-6.2-13.812-13.821-13.812h-10.122c-.829 0-1.5-.671-1.5-1.5v-3.902c-2.395 1.27-4.743 1.911-7.008 1.911-2.234 0-4.582-.676-7.002-2.014v4.004c0 .829-.671 1.5-1.5 1.5h-10.127c-7.621 0-13.821 6.196-13.821 13.812z" fill="#3a312a"/><path d="m161.951 132.003v-13.883c0-8.457-6.859-15.313-15.321-15.313h-2.422l.063.046-10.529 13.957-5.433-4.091-5.433 4.091-10.529-13.957.063-.046h-3.04c-8.462 0-15.321 6.855-15.321 15.313v13.882h67.902z" fill="#87796f"/><path d="m161.951 133.502h-67.902c-.829 0-1.5-.671-1.5-1.5v-13.882c0-9.271 7.546-16.812 16.821-16.812h3.04c.646 0 1.218.413 1.422 1.023l9.338 12.379 4.236-3.19c.534-.402 1.27-.402 1.805 0l4.236 3.19 9.419-12.487c.234-.542.743-.916 1.341-.916h2.422c9.275 0 16.821 7.542 16.821 16.812v13.882c.001.83-.671 1.501-1.499 1.501zm-66.402-3h64.901v-12.382c0-7.616-6.2-13.812-13.821-13.812h-1.577l-10.113 13.406c-.498.661-1.438.793-2.1.295l-4.531-3.412-4.531 3.412c-.661.498-1.601.367-2.1-.295l-10.113-13.406h-2.195c-7.621 0-13.821 6.196-13.821 13.812v12.382z" fill="#3a312a"/><path clip-rule="evenodd" d="m107.721 64.852c0 3.328-2.699 6.025-6.028 6.025s-6.028-2.698-6.028-6.025c0-3.328 2.699-6.025 6.028-6.025s6.028 2.698 6.028 6.025z" fill="#fae6ca" fill-rule="evenodd"/><path d="m101.692 72.378c-4.151 0-7.528-3.376-7.528-7.525s3.377-7.525 7.528-7.525 7.528 3.376 7.528 7.525c.001 4.149-3.376 7.525-7.528 7.525zm0-12.051c-2.497 0-4.528 2.03-4.528 4.525s2.031 4.525 4.528 4.525 4.528-2.03 4.528-4.525c.001-2.495-2.031-4.525-4.528-4.525z" fill="#3a312a"/><ellipse clip-rule="evenodd" cx="154.309" cy="64.852" fill="#fae6ca" fill-rule="evenodd" rx="6.028" ry="6.025"/><path d="m154.31 72.378c-4.151 0-7.529-3.376-7.529-7.525s3.377-7.525 7.529-7.525c4.151 0 7.528 3.376 7.528 7.525s-3.377 7.525-7.528 7.525zm0-12.051c-2.497 0-4.529 2.03-4.529 4.525s2.032 4.525 4.529 4.525 4.528-2.03 4.528-4.525-2.031-4.525-4.528-4.525z" fill="#3a312a"/><path d="m154.725 61.928c0 14.752-14.215 37.395-26.724 37.395-11.941 0-26.724-22.643-26.724-37.395s11.965-26.711 26.724-26.711 26.724 11.959 26.724 26.711z" fill="#fae6ca"/><g fill="#3a312a"><path d="m128.001 100.822c-6.053 0-13.005-5.035-19.074-13.812-5.644-8.164-9.15-17.775-9.15-25.082 0-15.556 12.662-28.211 28.225-28.211s28.224 12.655 28.224 28.211c-.001 15.711-14.868 38.894-28.225 38.894zm0-64.105c-13.909 0-25.225 11.31-25.225 25.211 0 13.639 14.092 35.895 25.225 35.895 11.451 0 25.224-22.046 25.224-35.895 0-13.902-11.315-25.211-25.224-25.211z"/><path d="m121.174 61.626c0 1.44-1.168 2.607-2.609 2.607s-2.608-1.167-2.608-2.607 1.168-2.607 2.608-2.607c1.441 0 2.609 1.167 2.609 2.607z"/><circle cx="137.436" cy="61.626" r="2.608"/></g><path d="m117.846 69.377c0 1.854-2.012 3.357-4.493 3.357s-4.493-1.503-4.493-3.357 2.012-3.357 4.493-3.357 4.493 1.503 4.493 3.357z" fill="#f59689"/><path d="m147.142 69.377c0 1.854-2.012 3.357-4.493 3.357-2.482 0-4.493-1.503-4.493-3.357s2.012-3.357 4.493-3.357c2.482 0 4.493 1.503 4.493 3.357z" fill="#f59689"/><path d="m128.309 29.322c-15.277 0-27.661 11.834-27.661 26.432 0 1.545.279 2.696.799 4.134.245.678 4.206-1.487 4.543-1.725 1.687-1.187 3.065-2.795 4.095-4.574.426-.739.781-1.492 1.067-2.245.912-2.401 3.389-9.082 5.904-8.558 3.373.703 7.196 1.1 11.252 1.1s7.879-.397 11.252-1.1c2.515-.524 4.993 6.157 5.904 8.558.286.753.641 1.505 1.067 2.245 1.701 2.942 4.576 5.742 8.072 6.252.009-.169.222-.226.381-.284 1.145-.416.984-2.887.984-3.805.002-14.596-12.382-26.43-27.659-26.43z" fill="#87796f"/><path d="m101.661 61.503c-.196 0-.376-.022-.536-.073-.513-.162-.909-.538-1.088-1.032-.533-1.475-.888-2.829-.889-4.644 0-15.402 13.082-27.933 29.161-27.933s29.161 12.53 29.161 27.932l.003.288c.021 1.421.06 4.031-1.803 4.858-.036.036-.074.07-.114.103-.325.268-.746.384-1.168.325-3.497-.51-6.919-3.121-9.154-6.985-.46-.799-.854-1.627-1.171-2.463l-.057-.15c-2.62-6.91-3.934-7.435-4.171-7.47-3.572.749-7.46 1.129-11.526 1.129s-7.955-.38-11.558-1.131c-.205.037-1.519.56-4.139 7.471l-.058.151c-.318.837-.711 1.666-1.17 2.462-1.192 2.058-2.759 3.804-4.531 5.051-.033.022-3.318 2.111-5.192 2.111zm53.191-1.897.541 1.399c.031-.012.064-.028.1-.048zm-26.543-28.784c-14.425 0-26.161 11.185-26.161 24.932.001.95.122 1.715.343 2.502.921-.38 2.237-1.061 2.655-1.332 1.401-.986 2.667-2.403 3.641-4.085.377-.654.702-1.337.963-2.025l.057-.15c1.993-5.256 4.289-10.024 7.556-9.344 3.402.708 7.085 1.068 10.946 1.068s7.544-.359 10.947-1.068c3.265-.685 5.562 4.089 7.556 9.345l.057.149c.261.688.585 1.37.964 2.029 1.644 2.841 4.001 4.818 6.398 5.401.022-.01.045-.02.068-.029.132-.309.191-1.024.175-2.129l-.003-.332c-.001-13.748-11.737-24.932-26.162-24.932z" fill="#3a312a"/><path d="m116.925 99.034h6.83v17.482h-6.83z" fill="#d6df58" transform="matrix(.799 -.602 .602 .799 -40.626 94.093)"/><path d="m122.876 118.31c-.455 0-.904-.206-1.199-.597l-10.525-13.958c-.24-.318-.343-.718-.288-1.112s.265-.75.583-.99l5.456-4.11c.661-.498 1.602-.366 2.1.295l10.525 13.959c.24.318.343.718.288 1.112-.055.395-.265.751-.583.99l-5.456 4.109c-.269.203-.586.302-.901.302zm-8.425-15.164 8.719 11.563 3.06-2.305-8.719-11.563z" fill="#3a312a"/><path d="m132.862 99.034h6.83v17.482h-6.83z" fill="#d6df58" transform="matrix(-.799 -.602 .602 -.799 180.285 275.855)"/><path d="m133.742 118.31c-.314 0-.631-.098-.901-.302l-5.455-4.109c-.318-.24-.528-.596-.583-.99-.056-.394.048-.794.288-1.112l10.525-13.959c.499-.661 1.44-.793 2.1-.295l5.456 4.11c.318.24.528.596.583.99.056.394-.048.794-.288 1.112l-10.526 13.958c-.296.391-.745.597-1.199.597zm-3.354-5.905 3.06 2.305 8.72-11.563-3.06-2.305z" fill="#3a312a"/><path d="m128 85.093c-4.077 0-7.017-1.833-8.739-5.449-.356-.748-.038-1.643.709-2 .748-.355 1.644-.039 2 .71 1.214 2.551 3.13 3.739 6.03 3.739 3.392 0 5.434-2.165 5.979-3.62.292-.776 1.16-1.166 1.931-.878.776.291 1.169 1.156.879 1.931-1.005 2.681-4.184 5.567-8.789 5.567z" fill="#3a312a"/><path d="m148.98 32.857c0 7.581-9.393 13.727-20.98 13.727s-20.98-6.146-20.98-13.727 20.203-16.317 20.98-16.317c.259 0 20.98 8.736 20.98 16.317z" fill="#87796f"/><path d="m128 48.084c-12.395 0-22.48-6.831-22.48-15.228 0-8.86 21.472-17.817 22.48-17.817.851 0 7.092 2.966 11.359 5.53 7.379 4.434 11.12 8.567 11.12 12.288 0 8.396-10.084 15.227-22.479 15.227zm-.058-29.973c-3.433 1.157-19.421 9.067-19.421 14.746 0 6.742 8.738 12.228 19.48 12.228 10.741 0 19.479-5.485 19.479-12.228-.001-5.532-15.834-13.311-19.538-14.746z" fill="#3a312a"/><path d="m106.768 133.502c-.829 0-1.5-.671-1.5-1.5v-10.968c0-.829.671-1.5 1.5-1.5s1.5.671 1.5 1.5v10.968c0 .829-.671 1.5-1.5 1.5z" fill="#3a312a"/><path d="m149.851 133.502c-.829 0-1.5-.671-1.5-1.5v-10.968c0-.829.671-1.5 1.5-1.5s1.5.671 1.5 1.5v10.968c0 .829-.672 1.5-1.5 1.5z" fill="#3a312a"/><path d="m47.267 26.217s3.408 12.659 13.222 13.246c0 0-13.1 4.525-13.321 14.202 0 0-2.578-13.572-12.925-14.059-.001 0 12.05-1.826 13.024-13.389z" fill="#d6df58"/><path d="m47.166 55.165c-.713 0-1.335-.506-1.472-1.217-.024-.125-2.494-12.419-11.523-12.844-.77-.037-1.387-.651-1.427-1.421-.04-.771.511-1.445 1.273-1.561.441-.069 10.894-1.817 11.754-12.032.061-.725.634-1.301 1.359-1.367.721-.061 1.392.399 1.583 1.102.032.116 3.259 11.626 11.863 12.14.714.043 1.298.584 1.396 1.292s-.319 1.388-.994 1.623c-.121.042-12.118 4.31-12.312 12.819-.018.767-.61 1.396-1.375 1.459-.041.005-.083.007-.125.007zm-7.741-15.73c3.878 1.969 6.23 5.746 7.587 8.876 2.026-4.022 5.941-6.787 8.949-8.427-4.134-1.842-6.783-5.651-8.334-8.722-1.793 4.36-5.271 6.868-8.202 8.273z" fill="#3a312a"/><path d="m25.568 43.197s2.411 8.954 9.352 9.369c0 0-9.266 3.201-9.422 10.045 0 0-1.824-9.6-9.142-9.944-.001.001 8.523-1.291 9.212-9.47z" fill="#d6df58"/><path d="m25.497 64.112c-.714 0-1.337-.507-1.473-1.22-.016-.082-1.704-8.442-7.739-8.726-.771-.037-1.388-.651-1.428-1.421-.04-.771.511-1.445 1.273-1.561.296-.047 7.364-1.243 7.942-8.114.061-.726.635-1.303 1.36-1.368.726-.068 1.392.399 1.582 1.102.021.079 2.228 7.919 7.994 8.264.715.043 1.299.584 1.396 1.293.098.709-.319 1.388-.996 1.622-.081.028-8.282 2.953-8.413 8.662-.018.767-.611 1.398-1.376 1.461-.04.004-.081.006-.122.006zm-4.52-11.528c2.108 1.333 3.523 3.394 4.447 5.28 1.376-2.232 3.515-3.872 5.365-4.973-2.287-1.269-3.884-3.35-4.942-5.224-1.172 2.288-3.014 3.876-4.87 4.917z" fill="#3a312a"/><path d="m84.074 239.459v-13.878c0-8.458-6.856-15.314-15.314-15.314h-10.117v-6.575c-2.799 1.94-5.694 3.085-8.504 3.085-2.695 0-5.539-1.156-8.326-3.119h-.172v6.61h-10.124c-8.458 0-15.314 6.856-15.314 15.314v13.878h67.871z" fill="#8ac3da"/><path d="m84.074 240.959h-67.87c-.829 0-1.5-.671-1.5-1.5v-13.878c0-9.271 7.542-16.814 16.813-16.814h8.624v-5.11c0-.829.671-1.5 1.5-1.5h.172c.309 0 .611.096.864.274 2.681 1.888 5.191 2.846 7.462 2.846 2.379 0 4.952-.948 7.649-2.818.459-.318 1.056-.354 1.55-.096.494.259.804.771.804 1.329v5.075h8.618c9.271 0 16.814 7.543 16.814 16.814v13.878c0 .829-.671 1.5-1.5 1.5zm-66.37-3h64.871v-12.378c0-7.617-6.197-13.814-13.814-13.814h-10.118c-.829 0-1.5-.671-1.5-1.5v-3.901c-2.394 1.27-4.741 1.911-7.004 1.911-2.233 0-4.579-.676-6.998-2.014v4.004c0 .829-.671 1.5-1.5 1.5h-10.124c-7.617 0-13.813 6.197-13.813 13.814z" fill="#3a312a"/><path clip-rule="evenodd" d="m29.869 172.306c0 3.328-2.698 6.026-6.026 6.026s-6.026-2.698-6.026-6.026 2.698-6.026 6.026-6.026 6.026 2.698 6.026 6.026z" fill="#f7e3c7" fill-rule="evenodd"/><path d="m23.843 179.831c-4.15 0-7.526-3.376-7.526-7.526s3.376-7.526 7.526-7.526c4.149 0 7.525 3.376 7.525 7.526.001 4.151-3.375 7.526-7.525 7.526zm0-12.051c-2.496 0-4.526 2.03-4.526 4.526s2.03 4.526 4.526 4.526c2.495 0 4.525-2.03 4.525-4.526.001-2.496-2.03-4.526-4.525-4.526z" fill="#3a312a"/><path clip-rule="evenodd" d="m82.462 172.306c0 3.328-2.698 6.026-6.026 6.026s-6.026-2.698-6.026-6.026 2.698-6.026 6.026-6.026 6.026 2.698 6.026 6.026z" fill="#f7e3c7" fill-rule="evenodd"/><path d="m76.436 179.831c-4.149 0-7.525-3.376-7.525-7.526s3.376-7.526 7.525-7.526c4.15 0 7.526 3.376 7.526 7.526 0 4.151-3.376 7.526-7.526 7.526zm0-12.051c-2.495 0-4.525 2.03-4.525 4.526s2.03 4.526 4.525 4.526c2.496 0 4.526-2.03 4.526-4.526s-2.03-4.526-4.526-4.526z" fill="#3a312a"/><path d="m76.852 169.381c0 14.753-14.208 37.397-26.712 37.397-11.936 0-26.712-22.645-26.712-37.397s11.96-26.712 26.712-26.712c14.753-.001 26.712 11.959 26.712 26.712z" fill="#87796f"/><path d="m50.14 208.278c-6.051 0-13-5.035-19.066-13.813-5.642-8.165-9.146-17.776-9.146-25.083 0-15.556 12.656-28.212 28.212-28.212s28.212 12.656 28.212 28.212c0 15.711-14.861 38.896-28.212 38.896zm0-64.109c-13.902 0-25.212 11.31-25.212 25.212 0 13.64 14.085 35.897 25.212 35.897 11.446 0 25.212-22.048 25.212-35.897 0-13.902-11.31-25.212-25.212-25.212z" fill="#3a312a"/><path d="m28.916 240.96c-.829 0-1.5-.671-1.5-1.5v-10.969c0-.829.671-1.5 1.5-1.5s1.5.671 1.5 1.5v10.969c0 .829-.671 1.5-1.5 1.5z" fill="#3a312a"/><path d="m71.979 240.96c-.829 0-1.5-.671-1.5-1.5v-10.969c0-.829.671-1.5 1.5-1.5s1.5.671 1.5 1.5v10.969c0 .829-.671 1.5-1.5 1.5z" fill="#3a312a"/><path d="m27.543 141.96c4.534 5.71 9.959 11.797 16.509 13.659 10.551 3 29.227-.742 29.227-15.929 0-9.712-8.14-21.449-23.331-12.512-18.83 11.078-29.76-10.217-29.76-.506 0 3.07 1.237 6.131 2.86 8.917z" fill="#87796f"/><path d="m51.426 158.067c-2.819 0-5.502-.356-7.784-1.005-6.834-1.943-12.341-7.958-17.274-14.169-.018-.023-.035-.046-.051-.068l-4.494-6.371c-.025-.036-.048-.072-.07-.109-2.062-3.538-3.064-6.702-3.064-9.672 0-1.375.169-3.049 1.491-3.798 1.557-.881 3.32.178 5.763 1.643 4.735 2.841 12.662 7.595 23.245 1.368 8.312-4.889 14.108-3.599 17.507-1.655 4.911 2.809 8.084 8.877 8.085 15.459 0 5.482-2.292 10.109-6.628 13.384-4.644 3.509-10.969 4.993-16.726 4.993zm-22.682-17.006c4.614 5.807 9.712 11.408 15.718 13.116 6.077 1.728 15.811 1.089 21.882-3.496 3.606-2.725 5.436-6.422 5.436-10.991 0-4.527-2.033-10.258-6.574-12.855-3.887-2.224-8.9-1.657-14.496 1.636-12.119 7.128-21.351 1.593-26.31-1.381-.92-.552-2.024-1.214-2.643-1.446-.036.208-.068.534-.068 1.029 0 2.411.858 5.062 2.624 8.106z" fill="#3a312a"/><path d="m239.796 225.582v13.877h-67.871v-13.877c0-8.458 6.856-15.314 15.314-15.314h10.124v-6.61h.172c2.787 1.963 5.631 3.119 8.327 3.119 2.81 0 5.705-1.145 8.504-3.085v6.575h10.118c8.457.001 15.312 6.857 15.312 15.315z" fill="#8ac3da"/><path d="m239.796 240.959h-67.871c-.829 0-1.5-.671-1.5-1.5v-13.878c0-9.271 7.542-16.814 16.813-16.814h8.624v-5.11c0-.829.671-1.5 1.5-1.5h.172c.309 0 .611.096.864.274 2.68 1.888 5.191 2.845 7.463 2.845 2.379 0 4.952-.948 7.649-2.817.459-.318 1.057-.354 1.55-.096.494.259.804.771.804 1.329v5.075h8.617c9.271 0 16.814 7.543 16.814 16.814v13.878c.001.829-.67 1.5-1.499 1.5zm-66.37-3h64.871v-12.378c0-7.617-6.197-13.814-13.814-13.814h-10.117c-.829 0-1.5-.671-1.5-1.5v-3.901c-2.393 1.27-4.741 1.911-7.004 1.911-2.234 0-4.58-.676-6.998-2.013v4.004c0 .829-.671 1.5-1.5 1.5h-10.124c-7.617 0-13.813 6.197-13.813 13.814v12.377z" fill="#3a312a"/><path clip-rule="evenodd" d="m185.591 172.306c0 3.328-2.698 6.026-6.026 6.026s-6.026-2.698-6.026-6.026 2.698-6.026 6.026-6.026 6.026 2.698 6.026 6.026z" fill="#f7e3c7" fill-rule="evenodd"/><path d="m179.565 179.831c-4.15 0-7.526-3.376-7.526-7.526s3.376-7.526 7.526-7.526c4.149 0 7.525 3.376 7.525 7.526.001 4.151-3.375 7.526-7.525 7.526zm0-12.051c-2.496 0-4.526 2.03-4.526 4.526s2.03 4.526 4.526 4.526c2.495 0 4.525-2.03 4.525-4.526.001-2.496-2.03-4.526-4.525-4.526z" fill="#3a312a"/><path clip-rule="evenodd" d="m238.184 172.306c0 3.328-2.698 6.026-6.026 6.026s-6.026-2.698-6.026-6.026 2.698-6.026 6.026-6.026c3.329 0 6.026 2.698 6.026 6.026z" fill="#f7e3c7" fill-rule="evenodd"/><path d="m232.159 179.831c-4.15 0-7.526-3.376-7.526-7.526s3.376-7.526 7.526-7.526 7.526 3.376 7.526 7.526c0 4.151-3.376 7.526-7.526 7.526zm0-12.051c-2.496 0-4.526 2.03-4.526 4.526s2.03 4.526 4.526 4.526 4.526-2.03 4.526-4.526-2.031-4.526-4.526-4.526z" fill="#3a312a"/><path d="m232.574 169.381c0 14.753-14.208 37.397-26.712 37.397-11.936 0-26.712-22.645-26.712-37.397s11.96-26.712 26.712-26.712c14.753-.001 26.712 11.959 26.712 26.712z" fill="#87796f"/><path d="m205.862 208.278c-6.051 0-13-5.035-19.066-13.813-5.642-8.165-9.146-17.776-9.146-25.083 0-15.556 12.656-28.212 28.212-28.212s28.212 12.656 28.212 28.212c0 15.711-14.861 38.896-28.212 38.896zm0-64.109c-13.902 0-25.212 11.31-25.212 25.212 0 13.64 14.085 35.897 25.212 35.897 11.446 0 25.212-22.048 25.212-35.897 0-13.902-11.31-25.212-25.212-25.212z" fill="#3a312a"/><path d="m184.639 240.96c-.829 0-1.5-.671-1.5-1.5v-10.969c0-.829.671-1.5 1.5-1.5s1.5.671 1.5 1.5v10.969c0 .829-.672 1.5-1.5 1.5z" fill="#3a312a"/><path d="m227.702 240.96c-.829 0-1.5-.671-1.5-1.5v-10.969c0-.829.671-1.5 1.5-1.5s1.5.671 1.5 1.5v10.969c0 .829-.672 1.5-1.5 1.5z" fill="#3a312a"/><path clip-rule="evenodd" d="m235.483 141.145s-12.912 13.557-28.841 13.557c-15.928 0-21.664-6.069-21.664-13.557 0-7.487 5.735-13.556 21.664-13.556 15.929-.001 28.841 13.556 28.841 13.556z" fill="#87796f" fill-rule="evenodd"/><path d="m206.643 156.201c-20.154 0-23.164-9.434-23.164-15.057s3.009-15.056 23.164-15.056c16.383 0 29.382 13.449 29.927 14.021.552.58.552 1.49 0 2.069-.546.573-13.544 14.023-29.927 14.023zm0-27.113c-9.199 0-20.164 2.092-20.164 12.056 0 9.965 10.965 12.057 20.164 12.057 12.564 0 23.337-8.96 26.683-12.056-3.351-3.093-14.143-12.057-26.683-12.057z" fill="#3a312a"/><path d="m161.935 225.582v13.877h-67.87v-13.877c0-8.458 6.856-15.314 15.314-15.314h10.124v-6.61h.172c2.787 1.963 5.631 3.119 8.327 3.119 2.81 0 5.705-1.145 8.504-3.085v6.575h10.118c8.456.001 15.311 6.857 15.311 15.315z" fill="#eb6e7a"/><path d="m161.935 240.959h-67.871c-.829 0-1.5-.671-1.5-1.5v-13.878c0-9.271 7.542-16.814 16.814-16.814h8.624v-5.11c0-.829.671-1.5 1.5-1.5h.171c.309 0 .611.096.864.274 2.68 1.888 5.191 2.845 7.463 2.845 2.379 0 4.953-.948 7.649-2.817.459-.318 1.057-.354 1.55-.096.494.259.804.771.804 1.329v5.075h8.618c9.271 0 16.813 7.543 16.813 16.814v13.878c.001.829-.67 1.5-1.499 1.5zm-66.371-3h64.871v-12.378c0-7.617-6.197-13.814-13.813-13.814h-10.118c-.829 0-1.5-.671-1.5-1.5v-3.901c-2.393 1.269-4.74 1.91-7.004 1.91-2.233 0-4.579-.676-6.998-2.013v4.004c0 .829-.671 1.5-1.5 1.5h-10.124c-7.617 0-13.814 6.197-13.814 13.814z" fill="#3a312a"/><path clip-rule="evenodd" d="m107.73 172.306c0 3.328-2.698 6.026-6.026 6.026s-6.026-2.698-6.026-6.026 2.698-6.026 6.026-6.026 6.026 2.698 6.026 6.026z" fill="#f7e3c7" fill-rule="evenodd"/><path d="m101.704 179.831c-4.149 0-7.525-3.376-7.525-7.526s3.376-7.526 7.525-7.526c4.15 0 7.526 3.376 7.526 7.526 0 4.151-3.376 7.526-7.526 7.526zm0-12.051c-2.495 0-4.525 2.03-4.525 4.526s2.03 4.526 4.525 4.526c2.496 0 4.526-2.03 4.526-4.526s-2.03-4.526-4.526-4.526z" fill="#3a312a"/><path clip-rule="evenodd" d="m160.323 172.306c0 3.328-2.698 6.026-6.026 6.026s-6.026-2.698-6.026-6.026 2.698-6.026 6.026-6.026c3.329 0 6.026 2.698 6.026 6.026z" fill="#f7e3c7" fill-rule="evenodd"/><path d="m154.297 179.831c-4.15 0-7.525-3.376-7.525-7.526s3.376-7.526 7.525-7.526c4.15 0 7.526 3.376 7.526 7.526 0 4.151-3.376 7.526-7.526 7.526zm0-12.051c-2.495 0-4.525 2.03-4.525 4.526s2.03 4.526 4.525 4.526c2.496 0 4.526-2.03 4.526-4.526s-2.03-4.526-4.526-4.526z" fill="#3a312a"/><path d="m154.713 169.381c0 14.753-14.208 37.397-26.712 37.397-11.936 0-26.712-22.645-26.712-37.397s11.96-26.712 26.712-26.712c14.753-.001 26.712 11.959 26.712 26.712z" fill="#87796f"/><path d="m128.001 208.278c-6.051 0-13-5.035-19.066-13.813-5.642-8.165-9.146-17.776-9.146-25.083 0-15.556 12.656-28.212 28.212-28.212s28.212 12.656 28.212 28.212c0 15.711-14.861 38.896-28.212 38.896zm0-64.109c-13.902 0-25.212 11.31-25.212 25.212 0 13.64 14.085 35.897 25.212 35.897 11.446 0 25.212-22.048 25.212-35.897 0-13.902-11.31-25.212-25.212-25.212z" fill="#3a312a"/><path d="m106.778 240.96c-.829 0-1.5-.671-1.5-1.5v-10.969c0-.829.671-1.5 1.5-1.5s1.5.671 1.5 1.5v10.969c0 .829-.672 1.5-1.5 1.5z" fill="#3a312a"/><path d="m149.841 240.96c-.829 0-1.5-.671-1.5-1.5v-10.969c0-.829.671-1.5 1.5-1.5s1.5.671 1.5 1.5v10.969c0 .829-.672 1.5-1.5 1.5z" fill="#3a312a"/><path d="m101.338 202.402v19.156h53.324v-57.996c0-14.725-11.937-26.662-26.662-26.662-14.725 0-26.662 11.937-26.662 26.662v25.869z" fill="#87796f"/><path d="m154.662 223.058h-53.324c-.829 0-1.5-.671-1.5-1.5v-19.156c0-.829.671-1.5 1.5-1.5s1.5.671 1.5 1.5v17.656h50.324v-56.496c0-13.874-11.288-25.162-25.162-25.162-13.875 0-25.162 11.288-25.162 25.162v25.869c0 .829-.671 1.5-1.5 1.5s-1.5-.671-1.5-1.5v-25.869c0-15.528 12.633-28.162 28.162-28.162s28.162 12.633 28.162 28.162v57.996c0 .829-.671 1.5-1.5 1.5z" fill="#3a312a"/><path d="m238.3 225.58v12.38h-17v-12.38c0-7.62-6.2-13.81-13.82-13.81h-10.11c.83-.01 1.49-.67 1.49-1.5v-4.01c2.42 1.34 4.77 2.02 7 2.02 2.26 0 4.61-.64 7.01-1.91v3.9c0 .83.67 1.5 1.5 1.5h10.11c7.62 0 13.82 6.19 13.82 13.81z" fill="#6ca6be"/></g></svg>