<svg id="Capa_1" enable-background="new 0 0 512 512" height="512" viewBox="0 0 512 512" width="512" xmlns="http://www.w3.org/2000/svg"><g><path d="m198.194 291.194h115.613v113.451h-115.613z" fill="#e2a975"/><path d="m272.516 512h-33.032l-16.516-115.613h66.064z" fill="#f4dbb3"/><path d="m148.645 330.323-49.615 18.041-3.093 1.49c-22.844 8.307-29.437 40.146-29.437 53.99v91.64l7.823 16.516h41.29l8.721-8 7.796 8h107.355v-83.905z" fill="#ff8086"/><path d="m198.194 291.194c17.264 9.132 36.916 14.354 57.806 14.354s40.542-5.222 57.806-14.354v-35.194h-115.612z" fill="#d19a6e"/><path d="m148.645 82.581h-82.58c-4.561 0-8.258 3.697-8.258 8.258 0 4.561 3.697 8.258 8.258 8.258h82.581v-16.516z" fill="#db4655"/><path d="m367.484 148.645h-4.129v-49.548h-199.688l-3.667 90.839c4.23 55.418 39.498 98.064 96 98.064 5.724 0 11.343.584 16.823-.279 48.611-7.659 86.313-47.981 90.115-97.785h4.546c11.402 0 20.645-9.244 20.645-20.645 0-11.403-9.243-20.646-20.645-20.646z" fill="#ecbd83"/><path d="m181.677 181.677v-82.58h-33.032v49.548h-4.129c-11.402 0-20.645 9.243-20.645 20.645s9.243 20.645 20.645 20.645h4.546c4.23 55.419 50.435 99.097 106.938 99.097 5.649 0 11.412-.47 16.823-1.312-51.454-7.94-91.146-52.366-91.146-106.043z" fill="#e2a975"/><path d="m148.645 82.581 33.034 62.792c55.607-11.046 90.837-46.276 90.837-46.276l6.253 25.012c1.13 4.519 5.723 7.229 10.205 5.965 13.307-3.752 39.918-13.031 57.864-30.977v33.032c0 9.122 7.395 16.516 16.516 16.516s16.516-7.394 16.516-16.516v-33.032l-14.12-16.516z" fill="#6e4848"/><path d="m181.677 82.581h-33.032l-16.516 16.516v33.032c0 8.978 7.194 16.497 16.172 16.515 11.809.024 22.912-1.187 33.377-3.271v-62.792z" fill="#643c3e"/><path d="m378.224 66.064c-7.651-37.694-40.981-66.064-80.934-66.064h-33.032c-75.258 0-97.758 36.973-97.758 82.581l15.177 16.516h140.387z" fill="#ff8086"/><path d="m214.71 173.419c-4.565 0-8.258-3.694-8.258-8.258v-8.258c0-4.56 3.694-8.258 8.258-8.258 4.565 0 8.258 3.698 8.258 8.258v8.258c0 4.565-3.694 8.258-8.258 8.258z" fill="#785353"/><path d="m297.29 173.419c-4.565 0-8.258-3.694-8.258-8.258v-8.258c0-4.56 3.694-8.258 8.258-8.258s8.258 3.698 8.258 8.258v8.258c0 4.565-3.693 8.258-8.258 8.258z" fill="#785353"/><path d="m239.484 381.938c0-7.476-3.438-14.532-9.24-19.246-19.826-16.111-31.687-33.556-36.962-42.628-2.066-3.552-6.386-5.042-10.201-3.516l-34.436 13.775s26.299 57.303 90.839 97.773z" fill="#f5ebcd"/><path d="m256 231.226c-13.137 0-25.452-3.274-35.629-9.46-3.895-2.371-5.137-7.452-2.766-11.347s7.452-5.145 11.347-2.766c14.968 9.097 39.129 9.097 54.097 0 3.903-2.371 8.984-1.121 11.347 2.766 2.371 3.895 1.129 8.976-2.766 11.347-10.178 6.186-22.493 9.46-35.63 9.46z" fill="#c38c66"/><g fill="#e5646e"><path d="m264.258 0h-49.548c-45.608 0-82.581 36.972-82.581 82.581v16.516h49.548v-16.516c0-45.609 36.973-82.581 82.581-82.581z"/><path d="m378.224 66.065h-39.643c-9.121 0-16.516 7.394-16.516 16.516v16.516h57.806v-16.516c0-5.657-.564-11.179-1.647-16.516z"/><path d="m74.323 395.586c0-19.152 9.53-36.58 24.708-47.222l-3.172 1.153c-22.845 8.307-38.052 30.018-38.052 54.327v91.64c0 9.121 7.395 16.516 16.516 16.516z"/><path d="m132.129 512h-16.516v-57.806c0-4.561 3.697-8.258 8.258-8.258 4.561 0 8.258 3.697 8.258 8.258z"/></g><path d="m363.355 330.323 52.787 19.195c22.845 8.307 38.052 30.018 38.052 54.326v91.64c0 9.122-7.395 16.516-16.516 16.516h-41.29l-8.637-6.5-7.879 6.5h-107.356v-83.905z" fill="#ff8086"/><path d="m272.516 381.938c0-7.476 3.438-14.532 9.24-19.246 19.826-16.111 31.687-33.556 36.962-42.628 2.066-3.552 6.386-5.042 10.201-3.516l34.436 13.775s-26.299 57.303-90.839 97.773z" fill="#f5ebcd"/><path d="m379.871 512h16.516v-57.806c0-4.561-3.697-8.258-8.258-8.258-4.561 0-8.258 3.697-8.258 8.258z" fill="#e5646e"/></g></svg>