<?xml version="1.0" encoding="iso-8859-1"?>
<!-- Generator: Adobe Illustrator 19.0.0, SVG Export Plug-In . SVG Version: 6.00 Build 0)  -->
<svg version="1.1" id="Capa_1" xmlns="http://www.w3.org/2000/svg" xmlns:xlink="http://www.w3.org/1999/xlink" x="0px" y="0px"
	 viewBox="0 0 512.002 512.002" style="enable-background:new 0 0 512.002 512.002;" xml:space="preserve">
<polygon style="fill:#B26156;" points="157.501,22.5 127.501,97.5 187.501,97.5 187.501,22.5 "/>
<path style="fill:#CC8073;" d="M142.501,22.5c-24.853,0-45,20.147-45,45v30h60v-75H142.501z"/>
<path style="fill:#4DA081;" d="M369.501,7.5l15,90h30v-45C414.501,27.647,394.354,7.5,369.501,7.5z"/>
<path style="fill:#5DC09A;" d="M369.501,7.5c-24.853,0-45,20.147-45,45v45h60v-45C384.501,27.647,377.785,7.5,369.501,7.5z"/>
<path style="fill:#4DA081;" d="M369.501,262.5v75c24.853,0,45-20.147,45-45L369.501,262.5z"/>
<path style="fill:#5DC09A;" d="M384.501,292.5l-30-30l-30,30c0,24.853,20.147,45,45,45C377.785,337.5,384.501,317.353,384.501,292.5
	z"/>
<path style="fill:#FFE29E;" d="M394.501,172.5h-30l20,120h30v-100C414.501,181.454,405.547,172.5,394.501,172.5z"/>
<path style="fill:#FFF1CF;" d="M364.501,172.5h-20c-11.046,0-20,8.954-20,20v100h60v-100
	C384.501,181.454,375.547,172.5,364.501,172.5z"/>
<path style="fill:#432521;" d="M369.501,52.5v65l45-20C414.501,72.647,394.354,52.5,369.501,52.5z"/>
<path style="fill:#CC8073;" d="M369.501,82.52v59.98c24.853,0,45-20.147,45-45C397.608,97.5,382.032,91.926,369.501,82.52z"/>
<path style="fill:#63352F;" d="M384.352,91.204c-1.021-21.87-7.279-38.704-14.851-38.704c-7.667,0-14.884,1.923-21.202,5.305
	l21.202,59.695L384.352,91.204z"/>
<path style="fill:#E59F8F;" d="M348.299,57.805c-14.161,7.58-23.798,22.51-23.798,39.695c0,24.853,20.147,45,45,45
	c8.284,0,15-20.147,15-45c0-2.138-0.053-4.238-0.149-6.296C368.91,84.426,356.197,72.599,348.299,57.805z"/>
<path style="fill:#864941;" d="M142.501,262.5v75c24.853,0,45-20.147,45-45L142.501,262.5z"/>
<path style="fill:#B26156;" d="M157.501,292.5l-30-30l-30,30c0,24.853,20.147,45,45,45C150.785,337.5,157.501,317.353,157.501,292.5
	z"/>
<path style="fill:#E44670;" d="M167.501,172.5h-30l20,120h30v-100C187.501,181.454,178.547,172.5,167.501,172.5z"/>
<path style="fill:#FF6288;" d="M137.501,172.5h-20c-11.046,0-20,8.954-20,20v100h60v-100
	C157.501,181.454,148.547,172.5,137.501,172.5z"/>
<path style="fill:#FFA4A9;" d="M142.501,52.5v90c24.853,0,45-20.147,45-45S167.354,52.5,142.501,52.5z"/>
<path style="fill:#FFC5BB;" d="M157.501,97.5c0-24.853-6.716-45-15-45c-24.853,0-45,20.147-45,45s20.147,45,45,45
	C150.785,142.5,157.501,122.353,157.501,97.5z"/>
<circle cx="142.5" cy="203.13" r="7.5"/>
<circle cx="142.5" cy="233.13" r="7.5"/>
<path d="M369.501,150c28.948,0,52.5-23.551,52.5-52.5v-45c0-28.949-23.552-52.5-52.5-52.5s-52.5,23.551-52.5,52.5v45
	C317.001,126.449,340.553,150,369.501,150z M332.001,52.5c0-20.678,16.822-37.5,37.5-37.5c20.678,0,37.5,16.822,37.5,37.5v8.308
	C397.464,51.063,384.18,45,369.501,45c-8.734,0-16.969,2.156-24.222,5.945c-0.172,0.076-0.344,0.152-0.513,0.242
	c-0.085,0.045-0.163,0.099-0.246,0.147c-4.641,2.521-8.854,5.728-12.519,9.474V52.5L332.001,52.5z M406.127,89.474
	c-18.874-2.342-35.848-12.518-46.802-28.06C362.563,60.5,365.974,60,369.501,60C387.424,60,402.441,72.641,406.127,89.474z
	 M345.907,68.38c13.714,20.517,35.847,33.784,60.412,36.212C402.994,121.889,387.754,135,369.501,135
	c-20.678,0-37.5-16.822-37.5-37.5C332.001,85.757,337.431,75.261,345.907,68.38z"/>
<path d="M422.001,292.5v-92.786c50.271-3.842,90-45.976,90-97.214c0-4.142-3.357-7.5-7.5-7.5s-7.5,3.358-7.5,7.5
	c0,43.344-33.605,78.961-76.125,82.229c-3.362-11.39-13.91-19.729-26.375-19.729h-50c-12.65,0-23.327,8.589-26.52,20.24
	c-24.683,1.761-46.67,13.43-61.985,31.051c-15.312-17.618-37.295-29.287-61.975-31.05C190.828,173.59,180.151,165,167.501,165h-50
	c-12.465,0-23.013,8.339-26.375,19.729c-42.52-3.268-76.125-38.886-76.125-82.229c0-4.142-3.357-7.5-7.5-7.5s-7.5,3.358-7.5,7.5
	c0,51.239,39.729,93.372,90,97.214V292.5c0,13.401,5.054,25.639,13.347,34.926l9.335,161.774l-24.554,8.185
	c-3.93,1.31-6.053,5.557-4.743,9.487c1.048,3.143,3.974,5.13,7.114,5.13c0.786,0,1.586-0.125,2.373-0.387l30-10
	c3.214-1.072,5.311-4.165,5.115-7.547l-8.922-154.609c7.059,3.537,15.016,5.541,23.434,5.541s16.375-2.003,23.435-5.541
	l-8.922,154.609c-0.195,3.382,1.901,6.476,5.115,7.547l30,10c0.787,0.262,1.587,0.387,2.373,0.387c3.141,0,6.066-1.988,7.114-5.13
	c1.31-3.93-0.813-8.177-4.743-9.487l-24.554-8.185l9.335-161.774C189.946,318.139,195,305.901,195,292.5v-92.123
	c20.969,2.073,39.455,12.726,51.878,28.399c-8.33,13.712-13.128,29.792-13.128,46.975c0,18.548,5.559,36.385,16.074,51.582
	c1.4,2.024,3.705,3.232,6.167,3.232c2.462,0,4.767-1.208,6.167-3.232c10.521-15.205,16.083-33.042,16.083-51.582
	c0-17.183-4.798-33.262-13.128-46.975c12.425-15.675,30.914-26.328,51.887-28.4V292.5c0,13.401,5.054,25.639,13.347,34.926
	l9.335,161.774l-24.554,8.185c-3.93,1.31-6.053,5.557-4.743,9.487c1.048,3.143,3.974,5.13,7.114,5.13
	c0.786,0,1.586-0.125,2.373-0.387l30-10c3.214-1.072,5.311-4.165,5.115-7.547l-8.922-154.609c7.06,3.537,15.016,5.541,23.435,5.541
	s16.375-2.003,23.435-5.541l-8.922,154.609c-0.195,3.382,1.901,6.476,5.115,7.547l30,10c0.787,0.262,1.587,0.387,2.373,0.387
	c3.141,0,6.066-1.988,7.114-5.13c1.31-3.93-0.813-8.177-4.743-9.487l-24.554-8.185l9.335-161.774
	C416.947,318.139,422.001,305.901,422.001,292.5z M117.501,180h50c6.863,0,12.448,5.561,12.496,12.413
	c0,0.029-0.004,0.058-0.004,0.087c0,0.059,0.007,0.116,0.009,0.174V285h-75v-92.5C105.001,185.607,110.608,180,117.501,180z
	 M105.756,300h73.491c-3.484,17.096-18.635,30-36.745,30S109.24,317.096,105.756,300z M255.993,308.129
	c-4.763-10.053-7.242-21.056-7.242-32.379c0-11.554,2.6-22.511,7.245-32.319c4.646,9.808,7.246,20.765,7.246,32.319
	C263.242,287.069,260.761,298.071,255.993,308.129z M344.501,180h50c6.893,0,12.5,5.607,12.5,12.5V285h-75v-92.5
	C332.001,185.607,337.608,180,344.501,180z M332.756,300h73.491c-3.484,17.096-18.635,30-36.745,30S336.24,317.096,332.756,300z"/>
<path d="M142.501,150c28.948,0,52.5-23.551,52.5-52.5v-75c0-4.142-3.357-7.5-7.5-7.5h-45c-28.948,0-52.5,23.551-52.5,52.5v30
	C90.001,126.449,113.553,150,142.501,150z M142.501,30h37.5v30.808C170.464,51.063,157.18,45,142.501,45
	c-14.301,0-27.278,5.754-36.756,15.061C109.205,42.935,124.37,30,142.501,30z M142.501,60c20.678,0,37.5,16.822,37.5,37.5
	s-16.822,37.5-37.5,37.5s-37.5-16.822-37.5-37.5S121.823,60,142.501,60z"/>
<g>
</g>
<g>
</g>
<g>
</g>
<g>
</g>
<g>
</g>
<g>
</g>
<g>
</g>
<g>
</g>
<g>
</g>
<g>
</g>
<g>
</g>
<g>
</g>
<g>
</g>
<g>
</g>
<g>
</g>
</svg>
