<svg id="Capa_1" enable-background="new 0 0 512 512" height="512" viewBox="0 0 512 512" width="512" xmlns="http://www.w3.org/2000/svg"><g><path d="m502 22.82h-152.466c-5.523 0-10 4.478-10 10s4.477 10 10 10h142.466v282.51h-171.082l20.324-22.07h119.328c5.523 0 10-4.478 10-10v-218.361c0-5.522-4.477-10-10-10h-307.56c-5.523 0-10 4.478-10 10v63.351c-7.731-.186-15.529.429-23.12 1.903v-97.333h141.58c5.523 0 10-4.478 10-10s-4.477-10-10-10h-151.58c-5.523 0-10 4.478-10 10v113.697c-11.655 5.315-20.12 12.398-26.013 18.841-12.375 13.531-16.395 27.321-16.56 27.901-1.78 6.26 3.108 12.735 9.619 12.735h5.742c-.456 14.466 3.066 28.877 4.317 33.493v10.863c0 .13.002.259.007.389.877 22.546 12.238 42.054 29.125 53.619l-3.427 26.001-45.515 10.927c-.203.049-.403.104-.603.165-30.78 9.458-52.641 37.413-54.398 69.562-.004.075-.007.15-.01.226l-2.17 67.62c-.087 2.706.927 5.332 2.811 7.277s4.477 3.044 7.185 3.044h208.22c5.523 0 10-4.478 10-10v-35.19c0-7.136 2.513-14.087 7.074-19.574l52.325-62.929 14.879-16.157h199.502c5.523 0 10-4.478 10-10v-302.51c0-5.522-4.477-10-10-10zm-222.123 317.551-19.739-20.177 59.015-51.335c1.723-1.498 2.863-3.525 3.27-5.727.535-2.884-.034-5.444 2.279-7.822l11.122-11.412c2.844-2.921 7.733-2.991 10.667-.137l11.412 11.122c2.908 2.833 2.975 7.757.137 10.668l-11.125 11.414c-1.51 1.55-3.638 2.355-5.792 2.25-2.982-.164-5.869 1.019-7.888 3.21zm-97.659-10.361-4.522-25.183c.762-.503 1.512-1.03 2.256-1.567h69.177l-30.415 24.732c-1.653 1.301-3.725 2.018-5.834 2.018zm-19.208-245.111h287.56v198.36h-81.86l3.657-3.753c1.814-1.862 3.327-3.938 4.53-6.164 5.778-10.691 3.667-24.308-5.036-32.787l-11.414-11.121c-10.722-10.442-28.441-10.281-38.951.506l-11.122 11.414c-4.004 4.11-6.642 9.477-7.494 15.148l-30.76 26.757h-73.791c5.887-9.911 9.043-21.382 9.043-32.909v-13.925c16.977-39.612-2.132-84.091-44.362-95.391zm-33.966 74.047c5.228-.656 10.536-.891 15.798-.602 27.486 1.563 50.378 21.456 48.967 50.151-7.238-7.075-17.198-11.153-27.322-11.153h-19.983c-8.358 0-10.716-9.971-10.94-11.021-1.593-8.252-12.557-10.884-17.717-4.239l-25.011 32.204c-.411-5.516-.309-11.185.835-15.958 1.629-6.791-4.036-12.602-10.664-12.332 7.034-10.376 20.82-23.813 46.037-27.05zm-32.05 82.59 26.988-34.75c4.92 5.852 12.229 10.555 22.521 10.555h19.983c7.506 0 14.336 4.427 17.401 11.278l3.481 7.783v13.948c0 24.274-20.934 45.189-45.187 45.189-24.802 0-44.16-21.204-45.188-45.391v-8.612zm42.023 73.923c6.684.318 13.417-.403 19.879-2.147l4.193 23.35c-11.328 8.887-29.866 9.241-41.031-.11l3.069-23.289c4.529 1.25 9.198 1.966 13.89 2.196zm80.899 96.171c-7.542 9.071-11.696 20.563-11.696 32.36v25.189h-135.285v-45.204c0-5.522-4.477-10-10-10s-10 4.478-10 10v45.204h-32.609l1.835-57.182c1.32-23.304 17.742-44.361 40.01-51.341l44.354-10.647c9.43 7.759 21.065 12.789 33.33 13.395 13.442.664 28.466-4.1 38.353-13.395h34.672c6.558-.068 13.025-2.229 18.198-6.293l13.621-10.703 21.939 22.426z"/><path d="m315.099 27.269c-4.919-7.515-16.855-4.698-18.196 4.084-1.378 9.025 9.667 14.94 16.475 8.983 3.728-3.262 4.468-8.951 1.721-13.067z"/><path d="m211.186 139.019h202.411c5.523 0 10-4.478 10-10s-4.477-10-10-10h-202.411c-5.523 0-10 4.478-10 10s4.477 10 10 10z"/><path d="m413.597 167.62h-88.885c-5.523 0-10 4.478-10 10s4.477 10 10 10h88.885c5.523 0 10-4.478 10-10s-4.477-10-10-10z"/></g></svg>