<?xml version="1.0" standalone="no"?>
<!DOCTYPE svg PUBLIC "-//W3C//DTD SVG 20010904//EN"
 "http://www.w3.org/TR/2001/REC-SVG-20010904/DTD/svg10.dtd">
<svg version="1.0" xmlns="http://www.w3.org/2000/svg"
 width="1912.000000pt" height="1227.000000pt" viewBox="0 0 1912.000000 1227.000000"
 preserveAspectRatio="xMidYMid meet">
<metadata>
Created by potrace 1.16, written by Peter Selinger 2001-2019
</metadata>
<g transform="translate(0.000000,1227.000000) scale(0.100000,-0.100000)"
fill="#000000" stroke="none">
<path d="M14410 10599 c-52 -4 -137 -17 -189 -28 -67 -15 -98 -18 -107 -10 -7
5 -34 9 -60 7 -38 -2 -51 -8 -67 -30 -18 -24 -20 -39 -16 -110 7 -146 1 -501
-11 -543 -6 -25 -9 -137 -8 -305 4 -307 14 -364 77 -430 63 -67 111 -75 426
-75 289 0 329 4 363 36 33 30 31 111 -4 146 -25 25 -27 26 -127 19 -56 -3
-186 -7 -290 -7 -213 -1 -230 3 -244 68 -10 47 -10 379 0 389 4 4 150 20 324
36 344 31 357 34 376 92 6 19 6 41 -2 68 -10 31 -20 43 -48 55 -33 13 -61 12
-317 -11 -155 -15 -292 -29 -304 -32 -23 -5 -24 -3 -18 33 4 21 8 117 10 213
l3 175 104 22 c130 27 312 30 414 7 39 -9 93 -18 121 -21 47 -5 52 -3 77 27
35 41 37 98 5 135 -29 32 -139 64 -253 71 -44 3 -93 6 -110 7 -16 2 -73 0
-125 -4z"/>
<path d="M13093 10561 c-78 -13 -93 -47 -93 -216 0 -60 -9 -265 -21 -455 -12
-200 -19 -421 -17 -527 3 -171 4 -184 25 -204 14 -15 34 -22 63 -23 34 -1 46
4 66 27 24 28 24 32 24 225 0 108 3 220 6 248 l6 51 73 -5 c78 -5 210 17 273
46 61 27 146 88 182 128 102 116 134 319 72 456 -43 95 -156 190 -277 233 -62
22 -86 24 -205 24 -74 -1 -154 -5 -177 -8z m349 -209 c107 -51 160 -116 160
-197 0 -106 -59 -193 -168 -246 -55 -27 -78 -32 -157 -36 -50 -2 -98 0 -104 4
-16 11 5 493 21 506 6 5 50 6 98 4 70 -4 99 -10 150 -35z"/>
<path d="M16573 10530 c-51 -21 -50 -11 -67 -700 -17 -691 -17 -702 31 -746
34 -31 104 -33 133 -4 19 19 20 33 20 277 l0 257 173 -171 c237 -234 343 -309
454 -320 47 -5 57 -3 78 17 30 29 41 81 25 119 -9 22 -31 39 -85 66 -85 42
-177 118 -370 307 l-140 137 121 123 c232 237 377 405 419 487 33 65 -11 141
-81 141 -18 0 -39 -3 -48 -6 -8 -3 -98 -101 -200 -217 -101 -117 -221 -250
-266 -297 l-81 -85 5 95 c4 52 9 178 13 280 l6 185 -24 28 c-26 30 -79 43
-116 27z"/>
<path d="M15748 10442 c-72 -77 -301 -435 -429 -669 -18 -35 -40 -63 -47 -63
-7 0 -27 -13 -43 -30 -27 -26 -30 -36 -28 -82 2 -46 -5 -71 -55 -183 -32 -71
-60 -144 -63 -162 -7 -42 12 -87 43 -104 31 -16 89 -15 110 2 19 16 66 108
129 254 26 61 50 113 54 117 6 7 453 100 457 95 1 -1 14 -63 29 -137 47 -238
106 -350 182 -350 72 0 112 58 92 134 -6 23 -23 77 -39 121 -29 79 -129 526
-190 845 -38 201 -36 193 -67 230 -39 47 -79 42 -135 -18z m52 -466 c18 -81
30 -150 27 -152 -5 -5 -280 -63 -284 -60 -1 1 49 83 110 183 62 100 113 181
114 179 1 -1 16 -68 33 -150z"/>
<path d="M12247 10464 c-104 -25 -207 -83 -295 -168 -80 -77 -106 -133 -107
-231 0 -99 19 -142 85 -194 62 -49 156 -78 298 -91 63 -6 142 -20 175 -31 362
-119 180 -475 -232 -457 -131 6 -186 30 -247 109 -25 33 -54 63 -64 69 -50 27
-125 -8 -135 -63 -30 -160 183 -297 465 -299 170 -1 301 35 422 116 74 48 114
95 152 176 27 57 31 75 30 150 0 47 -6 103 -12 126 -30 102 -137 204 -254 243
-35 11 -126 27 -204 35 -243 27 -300 64 -260 171 31 81 131 144 257 164 53 9
84 8 150 -5 46 -8 112 -18 147 -21 56 -5 65 -3 87 17 31 29 34 89 7 113 -76
69 -320 106 -465 71z"/>
<path d="M12890 8310 c-30 -32 -61 -116 -80 -215 -26 -135 -168 -603 -224
-736 -13 -31 -13 -30 -44 82 -41 148 -73 293 -111 509 -51 284 -80 359 -145
376 -70 17 -124 -32 -161 -146 -13 -44 -40 -163 -60 -266 -19 -102 -60 -277
-90 -388 -135 -496 -136 -626 -4 -626 74 0 95 35 125 205 16 91 140 634 153
669 4 12 18 -37 39 -136 38 -184 148 -601 169 -643 29 -56 53 -75 99 -75 54 0
98 35 126 99 11 25 76 217 146 426 l125 380 38 -220 c21 -120 50 -273 64 -340
70 -316 74 -327 122 -365 35 -27 94 -22 129 11 36 34 31 88 -26 299 -61 225
-110 463 -145 710 -50 353 -79 420 -178 420 -30 0 -45 -7 -67 -30z"/>
<path d="M16131 8294 c-27 -34 -28 -103 -3 -134 27 -34 111 -51 285 -57 l157
-6 0 -47 c0 -26 9 -159 20 -296 15 -192 30 -550 30 -742 0 -26 52 -62 89 -62
49 0 76 21 96 74 16 41 16 66 6 288 -6 134 -18 338 -26 453 -8 116 -16 239
-18 274 l-3 64 200 -9 c293 -12 303 -12 331 17 34 35 37 102 6 140 -25 31 -81
36 -581 50 -223 5 -442 13 -486 15 -79 5 -82 5 -103 -22z"/>
<path d="M14178 8242 c-72 -77 -301 -435 -429 -669 -18 -35 -40 -63 -47 -63
-7 0 -27 -13 -43 -30 -27 -26 -30 -36 -28 -82 2 -46 -5 -71 -55 -183 -32 -71
-60 -144 -63 -162 -7 -42 12 -87 43 -104 31 -16 89 -15 110 2 19 16 66 108
129 254 26 61 50 113 54 117 6 7 453 100 457 95 1 -1 14 -63 29 -137 47 -238
106 -350 182 -350 72 0 112 58 92 134 -6 23 -23 77 -39 121 -29 79 -129 526
-190 845 -38 201 -36 193 -67 230 -39 47 -79 42 -135 -18z m52 -466 c18 -81
30 -150 27 -152 -5 -5 -280 -63 -284 -60 -1 1 49 83 110 183 62 100 113 181
114 179 1 -1 16 -68 33 -150z"/>
<path d="M15377 8264 c-104 -25 -207 -83 -295 -168 -80 -77 -106 -133 -107
-231 0 -99 19 -142 85 -194 62 -49 156 -78 298 -91 63 -6 142 -20 175 -31 362
-119 180 -475 -232 -457 -131 6 -186 30 -247 109 -25 33 -54 63 -64 69 -50 27
-125 -8 -135 -63 -30 -160 183 -297 465 -299 170 -1 301 35 422 116 74 48 114
95 152 176 27 57 31 75 30 150 0 47 -6 103 -12 126 -30 102 -137 204 -254 243
-35 11 -126 27 -204 35 -243 27 -300 64 -260 171 31 81 131 144 257 164 53 9
84 8 150 -5 46 -8 112 -18 147 -21 56 -5 65 -3 87 17 31 29 34 89 7 113 -76
69 -320 106 -465 71z"/>
<path d="M11550 4965 l0 -105 -1617 -3 -1618 -2 1623 -3 1622 -2 0 110 c0 61
-2 110 -5 110 -3 0 -5 -47 -5 -105z"/>
</g>
</svg>
